<svg xmlns="http://www.w3.org/2000/svg" xmlns:xlink="http://www.w3.org/1999/xlink" width="40" zoomAndPan="magnify" viewBox="0 0 30 30.000001" height="40" preserveAspectRatio="xMidYMid meet" version="1.0"><defs><clipPath id="8a68fdf106"><path d="M 7.652344 6.855469 L 22 6.855469 L 22 16 L 7.652344 16 Z M 7.652344 6.855469 " clip-rule="nonzero"/></clipPath><clipPath id="832f3de5f8"><path d="M 7.652344 15 L 22 15 L 22 24 L 7.652344 24 Z M 7.652344 15 " clip-rule="nonzero"/></clipPath><clipPath id="299eb96511"><path d="M 15 10 L 22.167969 10 L 22.167969 17 L 15 17 Z M 15 10 " clip-rule="nonzero"/></clipPath></defs><g clip-path="url(#8a68fdf106)"><path fill="#eff6ff" d="M 7.652344 15.324219 L 7.652344 6.996094 L 10.402344 6.996094 L 11.972656 10.066406 L 13.910156 6.996094 L 16.597656 6.996094 L 16.597656 10.066406 L 18.199219 6.996094 L 20.707031 6.996094 L 18.199219 11.570312 L 21.101562 15.324219 L 18.59375 15.324219 L 16.597656 12.289062 L 16.597656 15.324219 L 14.148438 15.324219 L 14.148438 11.175781 L 11.972656 13.757812 L 9.859375 11.175781 L 9.859375 15.324219 Z M 7.652344 15.324219 " fill-opacity="1" fill-rule="nonzero"/></g><g clip-path="url(#832f3de5f8)"><path fill="#eff6ff" d="M 21.101562 15.28125 L 7.652344 15.28125 L 7.652344 18.128906 L 12.886719 18.128906 L 12.886719 18.800781 L 7.652344 19.792969 L 7.652344 23.28125 L 13.25 21.296875 C 13.6875 22.3125 14.546875 23.085938 15.597656 23.421875 L 15.839844 23.496094 C 17.007812 23.761719 18.230469 23.632812 19.3125 23.125 L 19.347656 23.109375 C 19.847656 22.878906 20.257812 22.488281 20.515625 22.003906 C 20.898438 21.289062 21.101562 20.488281 21.101562 19.675781 Z M 21.101562 15.28125 " fill-opacity="1" fill-rule="nonzero"/></g><g clip-path="url(#299eb96511)"><path fill="#1976d2" d="M 16.09375 12.035156 C 16.085938 12.050781 16.007812 12.25 15.921875 12.476562 C 15.699219 13.050781 15.683594 13.003906 16.125 13.234375 C 16.289062 13.320312 16.421875 13.394531 16.421875 13.394531 C 16.410156 13.425781 16.410156 13.730469 16.417969 13.855469 L 16.429688 14.019531 L 16.148438 14.183594 C 15.902344 14.328125 15.863281 14.351562 15.835938 14.394531 C 15.796875 14.453125 15.789062 14.492188 15.808594 14.558594 C 15.816406 14.585938 15.902344 14.796875 16.003906 15.023438 C 16.167969 15.386719 16.195312 15.445312 16.234375 15.476562 C 16.3125 15.539062 16.355469 15.535156 16.699219 15.425781 L 17.007812 15.328125 L 17.039062 15.363281 C 17.148438 15.480469 17.238281 15.574219 17.34375 15.667969 L 17.460938 15.773438 L 17.382812 16.078125 C 17.320312 16.316406 17.304688 16.398438 17.308594 16.445312 C 17.324219 16.5625 17.324219 16.5625 17.839844 16.761719 C 18.335938 16.953125 18.347656 16.957031 18.441406 16.902344 C 18.484375 16.878906 18.492188 16.871094 18.644531 16.578125 L 18.804688 16.28125 L 18.941406 16.289062 C 19.015625 16.292969 19.15625 16.289062 19.25 16.28125 C 19.34375 16.273438 19.421875 16.269531 19.425781 16.273438 C 19.429688 16.273438 19.503906 16.398438 19.59375 16.550781 C 19.773438 16.851562 19.796875 16.882812 19.890625 16.898438 C 19.949219 16.90625 19.972656 16.898438 20.398438 16.710938 C 21.011719 16.441406 20.984375 16.484375 20.839844 16.011719 C 20.789062 15.847656 20.746094 15.707031 20.746094 15.703125 C 20.746094 15.695312 20.789062 15.648438 20.84375 15.597656 C 20.898438 15.546875 20.996094 15.445312 21.0625 15.375 L 21.183594 15.238281 L 21.496094 15.320312 C 21.828125 15.40625 21.871094 15.410156 21.945312 15.359375 C 21.996094 15.320312 22 15.3125 22.222656 14.730469 C 22.339844 14.429688 22.34375 14.402344 22.335938 14.347656 C 22.332031 14.316406 22.3125 14.273438 22.296875 14.253906 C 22.273438 14.226562 21.957031 14.039062 21.722656 13.914062 C 21.695312 13.902344 21.695312 13.886719 21.699219 13.757812 C 21.703125 13.675781 21.699219 13.535156 21.691406 13.441406 L 21.679688 13.273438 L 21.957031 13.109375 C 22.292969 12.910156 22.328125 12.875 22.308594 12.753906 C 22.304688 12.734375 22.21875 12.519531 22.113281 12.28125 C 21.925781 11.855469 21.917969 11.84375 21.867188 11.808594 C 21.835938 11.789062 21.796875 11.773438 21.769531 11.769531 C 21.746094 11.769531 21.585938 11.8125 21.410156 11.863281 C 21.191406 11.933594 21.09375 11.957031 21.085938 11.945312 C 21.050781 11.894531 20.859375 11.707031 20.761719 11.625 L 20.648438 11.53125 L 20.722656 11.238281 C 20.765625 11.078125 20.800781 10.925781 20.804688 10.898438 C 20.808594 10.832031 20.785156 10.765625 20.742188 10.726562 C 20.707031 10.699219 19.914062 10.382812 19.8125 10.355469 C 19.757812 10.34375 19.667969 10.375 19.625 10.425781 C 19.609375 10.445312 19.535156 10.582031 19.457031 10.730469 C 19.378906 10.878906 19.3125 11 19.308594 11.003906 C 19.300781 11.007812 19.234375 11.003906 19.160156 11 C 19.082031 11 18.945312 11 18.855469 11.003906 C 18.765625 11.011719 18.683594 11.011719 18.679688 11.007812 C 18.675781 11.003906 18.597656 10.875 18.507812 10.722656 C 18.328125 10.417969 18.3125 10.402344 18.207031 10.390625 C 18.160156 10.386719 18.101562 10.410156 17.71875 10.578125 C 17.335938 10.742188 17.273438 10.773438 17.234375 10.816406 C 17.164062 10.890625 17.164062 10.921875 17.269531 11.273438 C 17.324219 11.441406 17.363281 11.585938 17.363281 11.59375 C 17.367188 11.601562 17.332031 11.640625 17.285156 11.675781 C 17.242188 11.714844 17.144531 11.816406 17.070312 11.898438 L 16.933594 12.050781 L 16.632812 11.972656 C 16.464844 11.929688 16.308594 11.894531 16.28125 11.894531 C 16.207031 11.890625 16.121094 11.953125 16.09375 12.035156 Z M 17.695312 13.175781 C 17.851562 12.902344 18.089844 12.6875 18.378906 12.5625 C 18.84375 12.363281 19.378906 12.496094 19.703125 12.882812 L 20.324219 13.628906 C 20.503906 13.847656 20.484375 14.171875 20.273438 14.363281 L 19.332031 15.238281 C 19.117188 15.4375 18.777344 15.425781 18.578125 15.210938 L 17.804688 14.382812 C 17.511719 14.070312 17.457031 13.597656 17.667969 13.222656 Z M 17.695312 13.175781 " fill-opacity="1" fill-rule="evenodd"/></g><path fill="#eff6ff" d="M 17.695312 13.175781 C 17.851562 12.902344 18.089844 12.6875 18.378906 12.5625 C 18.84375 12.363281 19.378906 12.496094 19.703125 12.882812 L 20.324219 13.628906 C 20.503906 13.847656 20.484375 14.171875 20.273438 14.363281 L 19.332031 15.238281 C 19.117188 15.4375 18.777344 15.425781 18.578125 15.210938 L 17.804688 14.382812 C 17.511719 14.070312 17.457031 13.597656 17.667969 13.222656 Z M 17.695312 13.175781 " fill-opacity="1" fill-rule="nonzero"/><path fill="#1976d2" d="M 16.085938 17.550781 C 15.84375 17.695312 15.660156 17.90625 15.539062 18.167969 C 15.339844 18.59375 15.347656 19.046875 15.554688 19.464844 C 15.632812 19.625 15.703125 19.738281 15.871094 19.972656 C 16.054688 20.226562 16.195312 20.214844 16.25 20.453125 C 16.28125 20.609375 16.230469 20.835938 16.277344 20.886719 C 16.308594 20.921875 16.320312 20.925781 16.414062 20.929688 C 16.6875 20.949219 17.238281 20.941406 17.4375 20.914062 C 17.554688 20.898438 17.644531 20.863281 17.683594 20.820312 C 17.710938 20.792969 17.71875 20.761719 17.730469 20.644531 C 17.753906 20.441406 17.695312 20.550781 17.757812 20.414062 C 17.828125 20.261719 18.132812 19.808594 18.277344 19.675781 C 18.25 19.710938 18.34375 19.613281 18.277344 19.675781 C 18.515625 19.378906 18.625 18.90625 18.542969 18.539062 C 18.5 18.359375 18.359375 18.082031 18.230469 17.921875 C 18.097656 17.757812 17.878906 17.597656 17.664062 17.503906 C 17.289062 17.335938 16.878906 17.296875 16.496094 17.386719 C 16.378906 17.414062 16.179688 17.492188 16.085938 17.550781 Z M 16.296875 21.234375 C 16.285156 21.269531 16.285156 21.28125 16.304688 21.320312 C 16.351562 21.410156 16.449219 21.425781 16.882812 21.417969 C 16.980469 21.414062 17.121094 21.414062 17.191406 21.417969 C 17.5625 21.421875 17.664062 21.402344 17.671875 21.316406 C 17.671875 21.273438 17.636719 21.234375 17.550781 21.195312 C 17.4375 21.136719 17.414062 21.136719 16.652344 21.152344 C 16.386719 21.160156 16.328125 21.171875 16.296875 21.234375 Z M 16.28125 21.648438 C 16.265625 21.601562 16.242188 21.691406 16.28125 21.648438 C 16.3125 21.726562 16.464844 21.804688 16.949219 21.8125 C 17.519531 21.824219 17.617188 21.871094 17.644531 21.839844 C 17.679688 21.808594 17.683594 21.714844 17.65625 21.671875 C 17.636719 21.644531 17.621094 21.632812 17.574219 21.625 C 17.539062 21.617188 17.492188 21.613281 17.46875 21.613281 C 17.445312 21.617188 17.226562 21.609375 16.984375 21.601562 C 16.515625 21.582031 16.332031 21.59375 16.28125 21.648438 Z M 16.5 22.121094 C 16.515625 22.160156 16.628906 22.132812 17.230469 22.132812 C 17.476562 22.128906 17.636719 22.148438 17.589844 22.121094 C 17.539062 22.09375 17.449219 22.085938 16.851562 22.074219 C 16.558594 22.066406 16.484375 22.078125 16.5 22.121094 Z M 16.832031 22.335938 C 16.828125 22.355469 16.871094 22.367188 16.988281 22.378906 C 17.1875 22.394531 17.316406 22.386719 17.316406 22.359375 C 17.320312 22.339844 17.246094 22.328125 17.066406 22.320312 C 16.871094 22.308594 16.835938 22.3125 16.832031 22.335938 Z M 16.832031 22.335938 " fill-opacity="1" fill-rule="evenodd"/></svg>