<svg xmlns="http://www.w3.org/2000/svg" xmlns:xlink="http://www.w3.org/1999/xlink" width="40" zoomAndPan="magnify" viewBox="0 0 30 30.000001" height="40" preserveAspectRatio="xMidYMid meet" version="1.0"><defs><clipPath id="e2540dc0b7"><path d="M 4.113281 1.335938 L 26 1.335938 L 26 16 L 4.113281 16 Z M 4.113281 1.335938 " clip-rule="nonzero"/></clipPath><clipPath id="6e694f9c91"><path d="M 4.113281 14 L 26 14 L 26 29 L 4.113281 29 Z M 4.113281 14 " clip-rule="nonzero"/></clipPath></defs><g clip-path="url(#e2540dc0b7)"><path fill="#ffffff" d="M 4.113281 15.023438 L 4.113281 1.566406 L 8.558594 1.566406 L 11.097656 6.527344 L 14.222656 1.566406 L 18.570312 1.566406 L 18.570312 6.527344 L 21.160156 1.566406 L 25.214844 1.566406 L 21.160156 8.953125 L 25.847656 15.023438 L 21.792969 15.023438 L 18.570312 10.117188 L 18.570312 15.023438 L 14.613281 15.023438 L 14.613281 8.320312 L 11.097656 12.492188 L 7.679688 8.320312 L 7.679688 15.023438 Z M 4.113281 15.023438 " fill-opacity="1" fill-rule="nonzero"/></g><g clip-path="url(#6e694f9c91)"><path fill="#ffffff" d="M 25.847656 14.957031 L 4.113281 14.957031 L 4.113281 19.558594 L 12.570312 19.558594 L 12.570312 20.644531 L 4.113281 22.246094 L 4.113281 27.882812 L 13.160156 24.675781 C 13.871094 26.316406 15.253906 27.566406 16.953125 28.109375 L 17.34375 28.234375 C 19.230469 28.660156 21.207031 28.449219 22.960938 27.632812 L 23.015625 27.609375 C 23.820312 27.230469 24.484375 26.605469 24.902344 25.820312 C 25.523438 24.664062 25.847656 23.367188 25.847656 22.054688 Z M 25.847656 14.957031 " fill-opacity="1" fill-rule="nonzero"/></g><path fill="#545454" d="M 17.753906 9.710938 C 17.742188 9.734375 17.617188 10.058594 17.476562 10.421875 C 17.113281 11.351562 17.09375 11.269531 17.808594 11.648438 C 18.070312 11.789062 18.285156 11.902344 18.28125 11.90625 C 18.269531 11.957031 18.265625 12.449219 18.28125 12.648438 L 18.300781 12.914062 L 17.84375 13.175781 C 17.441406 13.410156 17.386719 13.449219 17.339844 13.523438 C 17.277344 13.613281 17.265625 13.679688 17.292969 13.789062 C 17.304688 13.832031 17.449219 14.167969 17.613281 14.539062 C 17.875 15.128906 17.917969 15.21875 17.984375 15.269531 C 18.109375 15.371094 18.179688 15.363281 18.734375 15.1875 L 19.230469 15.03125 L 19.285156 15.089844 C 19.457031 15.277344 19.609375 15.425781 19.777344 15.578125 L 19.964844 15.75 L 19.835938 16.242188 C 19.738281 16.625 19.710938 16.757812 19.722656 16.835938 C 19.742188 17.023438 19.742188 17.023438 20.578125 17.347656 C 21.378906 17.65625 21.398438 17.660156 21.546875 17.578125 C 21.621094 17.535156 21.628906 17.523438 21.878906 17.050781 L 22.136719 16.570312 L 22.355469 16.582031 C 22.480469 16.589844 22.703125 16.582031 22.855469 16.570312 C 23.007812 16.558594 23.132812 16.550781 23.140625 16.554688 C 23.144531 16.558594 23.269531 16.761719 23.410156 17.003906 C 23.699219 17.496094 23.742188 17.542969 23.894531 17.566406 C 23.984375 17.578125 24.023438 17.566406 24.714844 17.265625 C 25.707031 16.832031 25.660156 16.898438 25.425781 16.132812 C 25.34375 15.867188 25.277344 15.644531 25.273438 15.632812 C 25.273438 15.621094 25.34375 15.546875 25.433594 15.464844 C 25.519531 15.386719 25.679688 15.222656 25.785156 15.101562 L 25.980469 14.886719 L 26.484375 15.019531 C 27.023438 15.160156 27.089844 15.164062 27.210938 15.078125 C 27.292969 15.019531 27.300781 15.003906 27.660156 14.0625 C 27.847656 13.578125 27.859375 13.535156 27.84375 13.445312 C 27.835938 13.394531 27.808594 13.324219 27.78125 13.296875 C 27.746094 13.25 27.234375 12.949219 26.851562 12.746094 C 26.8125 12.726562 26.808594 12.699219 26.816406 12.488281 C 26.820312 12.359375 26.816406 12.132812 26.804688 11.984375 L 26.785156 11.707031 L 27.234375 11.441406 C 27.773438 11.121094 27.828125 11.066406 27.800781 10.871094 C 27.796875 10.835938 27.652344 10.492188 27.480469 10.105469 C 27.179688 9.417969 27.167969 9.398438 27.085938 9.34375 C 27.035156 9.308594 26.972656 9.28125 26.929688 9.28125 C 26.890625 9.277344 26.628906 9.34375 26.351562 9.433594 C 25.996094 9.542969 25.835938 9.582031 25.824219 9.5625 C 25.765625 9.480469 25.457031 9.175781 25.300781 9.046875 L 25.113281 8.894531 L 25.238281 8.421875 C 25.304688 8.160156 25.363281 7.914062 25.367188 7.871094 C 25.378906 7.761719 25.335938 7.652344 25.265625 7.59375 C 25.210938 7.546875 23.925781 7.035156 23.765625 6.996094 C 23.675781 6.972656 23.53125 7.023438 23.464844 7.105469 C 23.4375 7.136719 23.316406 7.359375 23.191406 7.597656 C 23.066406 7.835938 22.957031 8.035156 22.949219 8.039062 C 22.941406 8.042969 22.832031 8.042969 22.710938 8.039062 C 22.585938 8.03125 22.363281 8.035156 22.21875 8.042969 C 22.070312 8.050781 21.945312 8.054688 21.9375 8.046875 C 21.929688 8.042969 21.800781 7.835938 21.65625 7.589844 C 21.363281 7.09375 21.339844 7.066406 21.171875 7.050781 C 21.09375 7.042969 21 7.078125 20.378906 7.351562 C 19.765625 7.617188 19.664062 7.667969 19.597656 7.738281 C 19.484375 7.859375 19.488281 7.910156 19.660156 8.476562 C 19.742188 8.75 19.808594 8.984375 19.808594 8.996094 C 19.8125 9.007812 19.753906 9.066406 19.683594 9.128906 C 19.613281 9.191406 19.457031 9.351562 19.335938 9.488281 L 19.117188 9.734375 L 18.625 9.609375 C 18.351562 9.539062 18.101562 9.480469 18.0625 9.480469 C 17.9375 9.472656 17.800781 9.574219 17.753906 9.710938 Z M 20.347656 11.550781 C 20.597656 11.109375 20.984375 10.761719 21.449219 10.5625 C 22.195312 10.242188 23.066406 10.449219 23.585938 11.074219 L 24.589844 12.285156 C 24.882812 12.636719 24.851562 13.15625 24.511719 13.46875 L 22.988281 14.882812 C 22.640625 15.203125 22.09375 15.183594 21.769531 14.835938 L 20.523438 13.503906 C 20.046875 12.992188 19.957031 12.234375 20.300781 11.628906 Z M 20.347656 11.550781 " fill-opacity="1" fill-rule="evenodd"/><path fill="#ffffff" d="M 20.347656 11.550781 C 20.597656 11.109375 20.984375 10.761719 21.449219 10.5625 C 22.195312 10.242188 23.066406 10.449219 23.585938 11.074219 L 24.589844 12.285156 C 24.882812 12.636719 24.851562 13.15625 24.511719 13.46875 L 22.988281 14.882812 C 22.640625 15.203125 22.09375 15.183594 21.769531 14.835938 L 20.523438 13.503906 C 20.046875 12.992188 19.957031 12.234375 20.300781 11.628906 Z M 20.347656 11.550781 " fill-opacity="1" fill-rule="nonzero"/><path fill="#545454" d="M 17.742188 18.621094 C 17.351562 18.859375 17.050781 19.195312 16.855469 19.621094 C 16.539062 20.308594 16.546875 21.042969 16.882812 21.714844 C 17.011719 21.972656 17.125 22.15625 17.394531 22.535156 C 17.691406 22.949219 17.921875 22.925781 18.003906 23.3125 C 18.0625 23.566406 17.972656 23.929688 18.050781 24.011719 C 18.105469 24.070312 18.121094 24.074219 18.269531 24.085938 C 18.714844 24.113281 19.605469 24.101562 19.925781 24.058594 C 20.113281 24.035156 20.265625 23.976562 20.328125 23.90625 C 20.367188 23.863281 20.378906 23.8125 20.402344 23.621094 C 20.441406 23.296875 20.34375 23.472656 20.445312 23.25 C 20.554688 23.003906 21.050781 22.273438 21.285156 22.054688 C 21.242188 22.109375 21.394531 21.957031 21.285156 22.054688 C 21.667969 21.574219 21.847656 20.8125 21.710938 20.21875 C 21.644531 19.925781 21.421875 19.480469 21.207031 19.21875 C 20.992188 18.957031 20.640625 18.695312 20.296875 18.542969 C 19.6875 18.277344 19.023438 18.210938 18.40625 18.355469 C 18.214844 18.402344 17.894531 18.527344 17.742188 18.621094 Z M 18.085938 24.578125 C 18.0625 24.632812 18.066406 24.648438 18.097656 24.714844 C 18.171875 24.855469 18.328125 24.882812 19.035156 24.871094 C 19.1875 24.867188 19.414062 24.867188 19.53125 24.871094 C 20.132812 24.878906 20.296875 24.847656 20.304688 24.707031 C 20.308594 24.636719 20.246094 24.578125 20.113281 24.507812 C 19.925781 24.417969 19.886719 24.417969 18.660156 24.445312 C 18.226562 24.453125 18.132812 24.476562 18.085938 24.578125 Z M 18.0625 25.242188 C 18.03125 25.167969 18 25.316406 18.0625 25.242188 C 18.109375 25.375 18.355469 25.5 19.140625 25.511719 C 20.058594 25.527344 20.214844 25.605469 20.265625 25.554688 C 20.316406 25.503906 20.324219 25.351562 20.277344 25.28125 C 20.25 25.238281 20.222656 25.222656 20.148438 25.207031 C 20.09375 25.195312 20.019531 25.1875 19.980469 25.191406 C 19.941406 25.191406 19.589844 25.183594 19.195312 25.167969 C 18.4375 25.140625 18.136719 25.15625 18.0625 25.242188 Z M 18.414062 26.007812 C 18.4375 26.070312 18.621094 26.027344 19.59375 26.027344 C 19.988281 26.023438 20.25 26.050781 20.175781 26.007812 C 20.09375 25.960938 19.945312 25.953125 18.980469 25.929688 C 18.507812 25.921875 18.386719 25.9375 18.414062 26.007812 Z M 18.945312 26.351562 C 18.941406 26.386719 19.015625 26.410156 19.199219 26.421875 C 19.523438 26.449219 19.730469 26.4375 19.734375 26.390625 C 19.734375 26.359375 19.617188 26.34375 19.324219 26.328125 C 19.007812 26.3125 18.953125 26.316406 18.945312 26.351562 Z M 18.945312 26.351562 " fill-opacity="1" fill-rule="evenodd"/></svg>