<svg xmlns="http://www.w3.org/2000/svg" xmlns:xlink="http://www.w3.org/1999/xlink" width="1080" zoomAndPan="magnify" viewBox="0 0 810 1012.49997" height="1350" preserveAspectRatio="xMidYMid meet" version="1.0"><defs><clipPath id="968cfd7107"><path d="M 321.597656 407 L 475 407 L 475 503 L 321.597656 503 Z M 321.597656 407 " clip-rule="nonzero"/></clipPath><clipPath id="2687e71025"><path d="M 321.597656 501 L 475 501 L 475 597 L 321.597656 597 Z M 321.597656 501 " clip-rule="nonzero"/></clipPath><clipPath id="520de9eb6a"><path d="M 413 445 L 488.765625 445 L 488.765625 521 L 413 521 Z M 413 445 " clip-rule="nonzero"/></clipPath></defs><g clip-path="url(#968cfd7107)"><path fill="#ffffff" d="M 321.597656 502.320312 L 321.597656 407.742188 L 352.832031 407.742188 L 370.679688 442.605469 L 392.644531 407.742188 L 423.191406 407.742188 L 423.191406 442.605469 L 441.382812 407.742188 L 469.871094 407.742188 L 441.382812 459.667969 L 474.332031 502.320312 L 445.84375 502.320312 L 423.191406 467.828125 L 423.191406 502.320312 L 395.390625 502.320312 L 395.390625 455.214844 L 370.679688 484.515625 L 346.652344 455.214844 L 346.652344 502.320312 Z M 321.597656 502.320312 " fill-opacity="1" fill-rule="nonzero"/></g><g clip-path="url(#2687e71025)"><path fill="#ffffff" d="M 474.332031 501.839844 L 321.597656 501.839844 L 321.597656 534.175781 L 381.03125 534.175781 L 381.03125 541.804688 L 321.597656 553.066406 L 321.597656 592.667969 L 385.179688 570.144531 C 390.15625 581.660156 399.875 590.457031 411.832031 594.265625 L 414.582031 595.144531 C 427.835938 598.144531 441.714844 596.660156 454.035156 590.921875 L 454.417969 590.742188 C 460.085938 588.101562 464.742188 583.695312 467.695312 578.183594 C 472.050781 570.042969 474.332031 560.953125 474.332031 551.71875 Z M 474.332031 501.839844 " fill-opacity="1" fill-rule="nonzero"/></g><g clip-path="url(#520de9eb6a)"><path fill="#545454" d="M 417.445312 464.96875 C 417.375 465.15625 416.5 467.414062 415.5 469.984375 C 412.964844 476.5 412.8125 475.941406 417.824219 478.597656 C 419.667969 479.574219 421.175781 480.386719 421.171875 480.398438 C 421.0625 480.773438 421.046875 484.234375 421.148438 485.613281 L 421.285156 487.484375 L 418.097656 489.34375 C 415.269531 490.988281 414.867188 491.261719 414.535156 491.761719 C 414.101562 492.414062 414.027344 492.867188 414.21875 493.632812 C 414.292969 493.933594 415.296875 496.304688 416.453125 498.902344 C 418.296875 503.042969 418.617188 503.671875 419.066406 504.039062 C 419.949219 504.765625 420.433594 504.714844 424.339844 503.476562 L 427.832031 502.371094 L 428.214844 502.777344 C 429.429688 504.082031 430.484375 505.128906 431.660156 506.199219 L 432.984375 507.410156 L 432.085938 510.871094 C 431.386719 513.5625 431.207031 514.492188 431.277344 515.054688 C 431.4375 516.363281 431.433594 516.359375 437.292969 518.632812 C 442.917969 520.816406 443.066406 520.851562 444.105469 520.257812 C 444.621094 519.960938 444.683594 519.867188 446.4375 516.570312 L 448.238281 513.1875 L 449.800781 513.265625 C 450.65625 513.304688 452.230469 513.265625 453.296875 513.175781 C 454.359375 513.085938 455.261719 513.039062 455.300781 513.070312 C 455.339844 513.101562 456.199219 514.527344 457.207031 516.234375 C 459.238281 519.679688 459.523438 520.007812 460.601562 520.175781 C 461.242188 520.277344 461.519531 520.171875 466.363281 518.058594 C 473.328125 515.011719 473.019531 515.5 471.359375 510.101562 C 470.792969 508.253906 470.316406 506.675781 470.304688 506.59375 C 470.292969 506.511719 470.785156 505.984375 471.40625 505.417969 C 472.019531 504.851562 473.144531 503.707031 473.898438 502.871094 L 475.269531 501.351562 L 478.800781 502.273438 C 482.589844 503.265625 483.066406 503.300781 483.917969 502.691406 C 484.480469 502.285156 484.53125 502.175781 487.066406 495.566406 C 488.378906 492.140625 488.464844 491.851562 488.359375 491.226562 C 488.296875 490.859375 488.101562 490.382812 487.925781 490.175781 C 487.660156 489.863281 484.0625 487.734375 481.390625 486.3125 C 481.101562 486.160156 481.074219 485.96875 481.132812 484.503906 C 481.167969 483.601562 481.136719 482 481.054688 480.941406 L 480.914062 479.019531 L 484.066406 477.148438 C 487.867188 474.894531 488.246094 474.511719 488.054688 473.132812 C 488.019531 472.890625 487.011719 470.46875 485.8125 467.75 C 483.675781 462.914062 483.617188 462.796875 483.03125 462.394531 C 482.675781 462.148438 482.234375 461.972656 481.933594 461.949219 C 481.660156 461.933594 479.824219 462.414062 477.859375 463.019531 C 475.375 463.789062 474.25 464.070312 474.167969 463.945312 C 473.761719 463.359375 471.589844 461.21875 470.480469 460.308594 L 469.175781 459.242188 L 470.039062 455.910156 C 470.511719 454.078125 470.921875 452.347656 470.949219 452.0625 C 471.023438 451.289062 470.746094 450.523438 470.242188 450.113281 C 469.84375 449.785156 460.832031 446.183594 459.683594 445.894531 C 459.058594 445.734375 458.042969 446.105469 457.589844 446.660156 C 457.402344 446.890625 456.527344 448.453125 455.648438 450.132812 C 454.769531 451.808594 454.007812 453.207031 453.957031 453.238281 C 453.902344 453.269531 453.148438 453.261719 452.28125 453.222656 C 451.410156 453.183594 449.855469 453.203125 448.824219 453.265625 C 447.789062 453.328125 446.898438 453.34375 446.84375 453.300781 C 446.789062 453.253906 445.902344 451.800781 444.875 450.066406 C 442.820312 446.597656 442.652344 446.410156 441.480469 446.292969 C 440.929688 446.234375 440.265625 446.488281 435.898438 448.394531 C 431.59375 450.277344 430.871094 450.632812 430.417969 451.113281 C 429.601562 451.976562 429.628906 452.320312 430.839844 456.316406 C 431.417969 458.234375 431.898438 459.871094 431.902344 459.953125 C 431.910156 460.039062 431.507812 460.457031 431.015625 460.890625 C 430.519531 461.320312 429.417969 462.453125 428.570312 463.410156 L 427.023438 465.148438 L 423.566406 464.261719 C 421.667969 463.777344 419.886719 463.367188 419.609375 463.351562 C 418.75 463.308594 417.789062 464.027344 417.445312 464.96875 Z M 435.671875 477.898438 C 437.433594 474.804688 440.152344 472.371094 443.421875 470.964844 C 448.675781 468.707031 454.789062 470.171875 458.441406 474.570312 L 465.496094 483.058594 C 467.558594 485.542969 467.320312 489.203125 464.953125 491.394531 L 454.230469 501.316406 C 451.78125 503.585938 447.957031 503.445312 445.675781 501.007812 L 436.902344 491.628906 C 433.558594 488.050781 432.929688 482.710938 435.355469 478.453125 Z M 435.671875 477.898438 " fill-opacity="1" fill-rule="evenodd"/></g><path fill="#ffffff" d="M 435.671875 477.898438 C 437.433594 474.804688 440.152344 472.371094 443.421875 470.964844 C 448.675781 468.707031 454.789062 470.171875 458.441406 474.570312 L 465.496094 483.058594 C 467.558594 485.542969 467.320312 489.203125 464.953125 491.394531 L 454.230469 501.316406 C 451.78125 503.585938 447.957031 503.445312 445.675781 501.007812 L 436.902344 491.628906 C 433.558594 488.050781 432.929688 482.710938 435.355469 478.453125 Z M 435.671875 477.898438 " fill-opacity="1" fill-rule="nonzero"/><path fill="#545454" d="M 417.363281 527.601562 C 414.621094 529.261719 412.519531 531.632812 411.148438 534.613281 C 408.914062 539.457031 408.976562 544.601562 411.328125 549.34375 C 412.226562 551.152344 413.023438 552.429688 414.921875 555.089844 C 417.003906 558.003906 418.625 557.847656 419.21875 560.566406 C 419.609375 562.347656 418.996094 564.894531 419.53125 565.472656 C 419.910156 565.882812 420.035156 565.921875 421.085938 565.992188 C 424.214844 566.195312 430.476562 566.089844 432.714844 565.800781 C 434.035156 565.628906 435.089844 565.234375 435.539062 564.742188 C 435.8125 564.441406 435.910156 564.070312 436.070312 562.714844 C 436.335938 560.441406 435.660156 561.691406 436.363281 560.125 C 437.144531 558.378906 440.625 553.246094 442.277344 551.71875 C 441.960938 552.113281 443.027344 551.023438 442.277344 551.71875 C 444.96875 548.347656 446.214844 542.980469 445.269531 538.828125 C 444.804688 536.773438 443.214844 533.628906 441.71875 531.796875 C 440.214844 529.949219 437.75 528.125 435.308594 527.054688 C 431.042969 525.179688 426.367188 524.710938 422.035156 525.730469 C 420.6875 526.046875 418.441406 526.945312 417.363281 527.601562 Z M 419.789062 569.457031 C 419.625 569.828125 419.636719 569.953125 419.878906 570.421875 C 420.390625 571.410156 421.5 571.59375 426.445312 571.503906 C 427.535156 571.484375 429.109375 571.480469 429.949219 571.496094 C 434.160156 571.578125 435.316406 571.332031 435.375 570.351562 C 435.40625 569.875 434.976562 569.4375 434.019531 568.96875 C 432.71875 568.335938 432.441406 568.320312 423.808594 568.511719 C 420.769531 568.578125 420.109375 568.734375 419.789062 569.457031 Z M 419.609375 574.128906 C 419.402344 573.585938 419.167969 574.632812 419.609375 574.128906 C 419.960938 575.042969 421.667969 575.921875 427.203125 576.015625 C 433.636719 576.128906 434.746094 576.683594 435.097656 576.328125 C 435.457031 575.960938 435.507812 574.902344 435.1875 574.382812 C 435.003906 574.082031 434.800781 573.96875 434.265625 573.859375 C 433.890625 573.785156 433.363281 573.738281 433.097656 573.753906 C 432.832031 573.769531 430.347656 573.699219 427.578125 573.59375 C 422.25 573.394531 420.148438 573.511719 419.609375 574.128906 Z M 422.085938 579.5 C 422.257812 579.949219 423.542969 579.648438 430.378906 579.621094 C 433.152344 579.613281 434.992188 579.796875 434.46875 579.5 C 433.886719 579.171875 432.839844 579.105469 426.070312 578.960938 C 422.742188 578.890625 421.894531 579.003906 422.085938 579.5 Z M 425.832031 581.925781 C 425.785156 582.167969 426.304688 582.3125 427.609375 582.421875 C 429.898438 582.609375 431.347656 582.523438 431.367188 582.195312 C 431.378906 581.976562 430.546875 581.847656 428.488281 581.75 C 426.277344 581.644531 425.882812 581.667969 425.832031 581.925781 Z M 425.832031 581.925781 " fill-opacity="1" fill-rule="evenodd"/></svg>