<svg xmlns="http://www.w3.org/2000/svg" xmlns:xlink="http://www.w3.org/1999/xlink" width="50" zoomAndPan="magnify" viewBox="0 0 37.5 37.499999" height="50" preserveAspectRatio="xMidYMid meet" version="1.0"><defs><clipPath id="f6d0bb15ea"><path d="M 3.050781 0 L 31 0 L 31 18 L 3.050781 18 Z M 3.050781 0 " clip-rule="nonzero"/></clipPath><clipPath id="8e59fdf94e"><path d="M 3.050781 17 L 31 17 L 31 35 L 3.050781 35 Z M 3.050781 17 " clip-rule="nonzero"/></clipPath><clipPath id="19f817711c"><path d="M 19 7 L 33.394531 7 L 33.394531 21 L 19 21 Z M 19 7 " clip-rule="nonzero"/></clipPath></defs><g clip-path="url(#f6d0bb15ea)"><path fill="#ffffff" d="M 3.050781 17.445312 L 3.050781 0.289062 L 8.714844 0.289062 L 11.953125 6.613281 L 15.9375 0.289062 L 21.476562 0.289062 L 21.476562 6.613281 L 24.777344 0.289062 L 29.941406 0.289062 L 24.777344 9.707031 L 30.75 17.445312 L 25.585938 17.445312 L 21.476562 11.1875 L 21.476562 17.445312 L 16.433594 17.445312 L 16.433594 8.898438 L 11.953125 14.214844 L 7.59375 8.898438 L 7.59375 17.445312 Z M 3.050781 17.445312 " fill-opacity="1" fill-rule="nonzero"/></g><g clip-path="url(#8e59fdf94e)"><path fill="#ffffff" d="M 30.75 17.355469 L 3.050781 17.355469 L 3.050781 23.222656 L 13.828125 23.222656 L 13.828125 24.605469 L 3.050781 26.648438 L 3.050781 33.828125 L 14.582031 29.746094 C 15.484375 31.832031 17.246094 33.429688 19.414062 34.121094 L 19.914062 34.277344 C 22.320312 34.824219 24.835938 34.554688 27.070312 33.511719 L 27.140625 33.480469 C 28.167969 33 29.011719 32.203125 29.546875 31.203125 C 30.335938 29.726562 30.75 28.078125 30.75 26.402344 Z M 30.75 17.355469 " fill-opacity="1" fill-rule="nonzero"/></g><g clip-path="url(#19f817711c)"><path fill="#545454" d="M 20.433594 10.667969 C 20.421875 10.703125 20.261719 11.113281 20.082031 11.578125 C 19.621094 12.761719 19.59375 12.660156 20.503906 13.140625 C 20.835938 13.320312 21.109375 13.464844 21.109375 13.46875 C 21.089844 13.535156 21.085938 14.164062 21.105469 14.414062 L 21.128906 14.753906 L 20.550781 15.089844 C 20.039062 15.386719 19.964844 15.4375 19.90625 15.527344 C 19.828125 15.648438 19.8125 15.730469 19.847656 15.867188 C 19.863281 15.921875 20.042969 16.351562 20.253906 16.824219 C 20.589844 17.574219 20.644531 17.6875 20.726562 17.753906 C 20.886719 17.886719 20.976562 17.878906 21.683594 17.652344 L 22.316406 17.453125 L 22.386719 17.527344 C 22.609375 17.761719 22.796875 17.953125 23.011719 18.148438 L 23.253906 18.367188 L 23.089844 18.996094 C 22.960938 19.484375 22.929688 19.652344 22.941406 19.753906 C 22.972656 19.992188 22.972656 19.988281 24.035156 20.402344 C 25.054688 20.796875 25.082031 20.804688 25.269531 20.695312 C 25.363281 20.644531 25.375 20.625 25.691406 20.027344 L 26.019531 19.414062 L 26.300781 19.429688 C 26.457031 19.4375 26.742188 19.429688 26.9375 19.414062 C 27.128906 19.394531 27.292969 19.386719 27.300781 19.394531 C 27.308594 19.398438 27.460938 19.65625 27.644531 19.96875 C 28.015625 20.59375 28.066406 20.652344 28.261719 20.683594 C 28.378906 20.699219 28.429688 20.683594 29.304688 20.296875 C 30.570312 19.746094 30.511719 19.835938 30.210938 18.855469 C 30.109375 18.519531 30.023438 18.234375 30.019531 18.21875 C 30.019531 18.203125 30.109375 18.109375 30.21875 18.003906 C 30.332031 17.902344 30.535156 17.695312 30.671875 17.542969 L 30.921875 17.269531 L 31.5625 17.433594 C 32.25 17.613281 32.335938 17.621094 32.488281 17.511719 C 32.59375 17.4375 32.601562 17.417969 33.0625 16.21875 C 33.300781 15.597656 33.316406 15.546875 33.296875 15.429688 C 33.285156 15.363281 33.25 15.277344 33.214844 15.242188 C 33.167969 15.183594 32.515625 14.796875 32.03125 14.539062 C 31.980469 14.511719 31.972656 14.476562 31.984375 14.210938 C 31.992188 14.046875 31.984375 13.757812 31.972656 13.566406 L 31.945312 13.21875 L 32.515625 12.878906 C 33.207031 12.46875 33.273438 12.398438 33.242188 12.148438 C 33.234375 12.105469 33.050781 11.667969 32.832031 11.171875 C 32.445312 10.296875 32.433594 10.273438 32.328125 10.203125 C 32.265625 10.15625 32.183594 10.125 32.128906 10.121094 C 32.082031 10.117188 31.746094 10.207031 31.390625 10.316406 C 30.941406 10.457031 30.738281 10.507812 30.722656 10.484375 C 30.648438 10.378906 30.253906 9.988281 30.054688 9.824219 L 29.816406 9.628906 L 29.972656 9.027344 C 30.058594 8.695312 30.132812 8.378906 30.136719 8.328125 C 30.152344 8.1875 30.101562 8.050781 30.011719 7.976562 C 29.9375 7.914062 28.304688 7.261719 28.09375 7.210938 C 27.980469 7.179688 27.796875 7.25 27.714844 7.347656 C 27.679688 7.390625 27.523438 7.675781 27.363281 7.976562 C 27.203125 8.28125 27.066406 8.535156 27.054688 8.542969 C 27.046875 8.546875 26.910156 8.546875 26.753906 8.539062 C 26.59375 8.53125 26.3125 8.535156 26.125 8.546875 C 25.9375 8.558594 25.777344 8.5625 25.765625 8.550781 C 25.757812 8.542969 25.59375 8.28125 25.410156 7.964844 C 25.035156 7.335938 25.007812 7.304688 24.792969 7.28125 C 24.695312 7.273438 24.574219 7.316406 23.78125 7.664062 C 23 8.003906 22.871094 8.070312 22.785156 8.15625 C 22.636719 8.3125 22.644531 8.375 22.863281 9.101562 C 22.96875 9.449219 23.054688 9.746094 23.054688 9.761719 C 23.058594 9.773438 22.984375 9.851562 22.894531 9.929688 C 22.804688 10.007812 22.605469 10.214844 22.453125 10.386719 L 22.171875 10.703125 L 21.542969 10.542969 C 21.199219 10.453125 20.875 10.378906 20.828125 10.375 C 20.671875 10.367188 20.496094 10.5 20.433594 10.667969 Z M 23.738281 13.015625 C 24.058594 12.453125 24.550781 12.011719 25.144531 11.757812 C 26.097656 11.347656 27.207031 11.613281 27.871094 12.410156 L 29.148438 13.949219 C 29.523438 14.402344 29.480469 15.066406 29.050781 15.460938 L 27.105469 17.261719 C 26.660156 17.671875 25.96875 17.648438 25.554688 17.207031 L 23.964844 15.503906 C 23.355469 14.855469 23.242188 13.886719 23.683594 13.113281 Z M 23.738281 13.015625 " fill-opacity="1" fill-rule="evenodd"/></g><path fill="#ffffff" d="M 23.738281 13.015625 C 24.058594 12.453125 24.550781 12.011719 25.144531 11.757812 C 26.097656 11.347656 27.207031 11.613281 27.871094 12.410156 L 29.148438 13.949219 C 29.523438 14.402344 29.480469 15.066406 29.050781 15.460938 L 27.105469 17.261719 C 26.660156 17.671875 25.96875 17.648438 25.554688 17.207031 L 23.964844 15.503906 C 23.355469 14.855469 23.242188 13.886719 23.683594 13.113281 Z M 23.738281 13.015625 " fill-opacity="1" fill-rule="nonzero"/><path fill="#545454" d="M 20.417969 22.027344 C 19.921875 22.332031 19.539062 22.761719 19.292969 23.300781 C 18.886719 24.179688 18.898438 25.113281 19.324219 25.972656 C 19.488281 26.300781 19.632812 26.53125 19.976562 27.015625 C 20.355469 27.542969 20.648438 27.515625 20.757812 28.007812 C 20.828125 28.332031 20.714844 28.792969 20.8125 28.898438 C 20.882812 28.972656 20.902344 28.980469 21.09375 28.992188 C 21.660156 29.027344 22.796875 29.007812 23.203125 28.957031 C 23.441406 28.925781 23.632812 28.855469 23.714844 28.765625 C 23.765625 28.710938 23.78125 28.644531 23.8125 28.398438 C 23.859375 27.984375 23.738281 28.210938 23.863281 27.929688 C 24.007812 27.609375 24.636719 26.679688 24.9375 26.402344 C 24.878906 26.472656 25.074219 26.277344 24.9375 26.402344 C 25.425781 25.792969 25.652344 24.816406 25.480469 24.066406 C 25.394531 23.691406 25.109375 23.121094 24.835938 22.789062 C 24.5625 22.453125 24.117188 22.125 23.675781 21.929688 C 22.902344 21.589844 22.050781 21.503906 21.265625 21.691406 C 21.023438 21.746094 20.613281 21.910156 20.417969 22.027344 Z M 20.859375 29.621094 C 20.828125 29.6875 20.832031 29.710938 20.875 29.792969 C 20.96875 29.972656 21.167969 30.007812 22.066406 29.992188 C 22.265625 29.988281 22.550781 29.988281 22.703125 29.992188 C 23.464844 30.003906 23.675781 29.960938 23.6875 29.78125 C 23.691406 29.695312 23.613281 29.617188 23.441406 29.53125 C 23.203125 29.417969 23.152344 29.414062 21.589844 29.449219 C 21.039062 29.460938 20.917969 29.488281 20.859375 29.621094 Z M 20.828125 30.46875 C 20.789062 30.371094 20.746094 30.558594 20.828125 30.46875 C 20.890625 30.632812 21.199219 30.792969 22.203125 30.808594 C 23.371094 30.828125 23.570312 30.929688 23.636719 30.867188 C 23.699219 30.800781 23.710938 30.609375 23.652344 30.515625 C 23.617188 30.460938 23.582031 30.4375 23.484375 30.417969 C 23.417969 30.40625 23.320312 30.394531 23.273438 30.398438 C 23.226562 30.402344 22.773438 30.390625 22.273438 30.371094 C 21.304688 30.335938 20.925781 30.355469 20.828125 30.46875 Z M 21.277344 31.441406 C 21.308594 31.523438 21.539062 31.46875 22.78125 31.464844 C 23.28125 31.460938 23.617188 31.496094 23.519531 31.441406 C 23.414062 31.382812 23.226562 31.371094 22 31.34375 C 21.394531 31.332031 21.242188 31.351562 21.277344 31.441406 Z M 21.957031 31.882812 C 21.945312 31.925781 22.039062 31.953125 22.277344 31.972656 C 22.691406 32.003906 22.953125 31.988281 22.957031 31.929688 C 22.960938 31.890625 22.808594 31.867188 22.4375 31.847656 C 22.035156 31.832031 21.964844 31.835938 21.957031 31.882812 Z M 21.957031 31.882812 " fill-opacity="1" fill-rule="evenodd"/></svg>